<svg width="21" height="21" viewBox="0 0 21 21" fill="none" xmlns="http://www.w3.org/2000/svg">
<path d="M2.33333 18.6667H3.99583L15.4 7.2625L13.7375 5.6L2.33333 17.0042V18.6667V18.6667M0 21V16.0417L15.4 0.670833C15.6333 0.456944 15.891 0.291667 16.1729 0.175C16.4549 0.0583333 16.7514 0 17.0625 0C17.3736 0 17.675 0.0583333 17.9667 0.175C18.2583 0.291667 18.5111 0.466667 18.725 0.7L20.3292 2.33333C20.5625 2.54722 20.7326 2.8 20.8396 3.09167C20.9465 3.38333 21 3.675 21 3.96667C21 4.27778 20.9465 4.57431 20.8396 4.85625C20.7326 5.13819 20.5625 5.39583 20.3292 5.62917L4.95833 21H0V21M18.6667 3.96667V3.96667L17.0333 2.33333V2.33333L18.6667 3.96667V3.96667M14.5542 6.44583L13.7375 5.6V5.6L15.4 7.2625V7.2625L14.5542 6.44583V6.44583" fill="white"/>
</svg>
